<svg width="24" height="24" viewBox="0 0 24 24" fill="none" xmlns="http://www.w3.org/2000/svg">
<path fill-rule="evenodd" clip-rule="evenodd" d="M8 9H10V2H12V9C12 11.12 10.34 12.84 8.25 12.97V22H5.75V12.97C3.66 12.84 2 11.12 2 9V2H4V9H6V2H8V9ZM14 12C14 6.47715 18.4772 2 24 2V4C19.5817 4 16 7.58172 16 12C16 16.4183 19.5817 20 24 20V22C18.4772 22 14 17.5228 14 12ZM18 12C18 8.68629 20.6863 6 24 6V8C21.7909 8 20 9.79086 20 12C20 14.2091 21.7909 16 24 16V18C20.6863 18 18 15.3137 18 12Z" fill="black"/>
</svg>
