<svg width="24" height="25" viewBox="0 0 24 25" fill="none" xmlns="http://www.w3.org/2000/svg">
<path fill-rule="evenodd" clip-rule="evenodd" d="M0 7.8125C0 3.49778 3.49778 0 7.8125 0H16.1875C20.5022 0 24 3.49778 24 7.8125H22.5941H1.40588H0ZM0 10.9375H3.80588L6.20588 14.0625H0V10.9375ZM20.1941 10.9375L17.7941 14.0625H24V10.9375H20.1941ZM12 21.6069L8.60588 17.1875H0V21C0 23.2091 1.79086 25 4 25H20C22.2091 25 24 23.2091 24 21V17.1875H15.3941L12 21.6069ZM16.8 10.9375L12 17.1875L7.2 10.9375H16.8Z" fill="black"/>
</svg>
