<svg width="31" height="47" viewBox="0 0 31 47" fill="none" xmlns="http://www.w3.org/2000/svg">
<path d="M25.945 32.7602C25.9341 32.7024 25.9161 32.6456 25.8935 32.5914C25.871 32.5364 25.843 32.484 25.8105 32.4353C25.778 32.3857 25.7401 32.3397 25.6986 32.2981C25.4893 32.0888 25.1779 31.9922 24.8847 32.0518C24.8269 32.0635 24.7701 32.0807 24.7159 32.1032C24.6609 32.1258 24.6085 32.1538 24.5598 32.1863C24.5102 32.2187 24.4642 32.2566 24.4226 32.2981C24.3811 32.3397 24.3432 32.3857 24.3108 32.4353C24.2783 32.484 24.2503 32.5364 24.2277 32.5914C24.2052 32.6456 24.188 32.7024 24.1763 32.7602C24.1646 32.8179 24.1582 32.8775 24.1582 32.9361C24.1582 32.9948 24.1646 33.0544 24.1763 33.113C24.188 33.1699 24.2052 33.2267 24.2277 33.2818C24.2503 33.3359 24.2783 33.3882 24.3108 33.437C24.3432 33.4866 24.3811 33.5326 24.4226 33.5741C24.4642 33.6156 24.5102 33.6535 24.5598 33.6869C24.6085 33.7194 24.6609 33.7474 24.7159 33.7699C24.7701 33.7925 24.8269 33.8096 24.8847 33.8214C24.9424 33.8331 25.002 33.8385 25.0606 33.8385C25.298 33.8385 25.5308 33.7429 25.6986 33.5741C25.7401 33.5326 25.778 33.4866 25.8105 33.437C25.843 33.3882 25.871 33.3359 25.8935 33.2818C25.9161 33.2267 25.9341 33.1699 25.945 33.113C25.9567 33.0544 25.963 32.9948 25.963 32.9361C25.963 32.8775 25.9567 32.8179 25.945 32.7602Z" fill="#323232"/>
<path d="M30.5444 19.9253C30.3733 19.7333 30.1282 19.6235 29.8709 19.6235H28.8175V8.26939C28.8175 7.771 28.4135 7.367 27.9151 7.367H24.7702V3.90246C24.7702 3.40408 24.3662 3.00008 23.8678 3.00008H19.8206C19.3222 3.00008 18.9182 3.40408 18.9182 3.90246V9.80985H16.6757V4.87515C16.6757 4.37676 16.2717 3.97276 15.7734 3.97276H12.6285V0.902387C12.6285 0.403999 12.2245 0 11.7261 0H7.67877C7.18038 0 6.77638 0.403999 6.77638 0.902387V8.75532H3.63147C3.13308 8.75532 2.72909 9.15932 2.72909 9.65771V19.6235H1.67573C1.41846 19.6235 1.17337 19.7333 1.00219 19.9253C0.831004 20.1174 0.749879 20.3734 0.779297 20.6289L3.62931 45.4028C3.68174 45.8582 4.06733 46.202 4.52583 46.202H27.0211C27.4796 46.202 27.8652 45.8582 27.9175 45.4028L30.7675 20.6289C30.7968 20.3734 30.7156 20.1174 30.5444 19.9253ZM24.7703 9.17177H27.0128V19.6235H24.7703V9.17177ZM20.723 4.80485H22.9655V19.8424C22.8076 19.9785 22.6966 20.1691 22.6627 20.3884L22.0044 24.6542H20.723V4.80485ZM16.6757 11.6146H18.9183V24.6541H16.6757V11.6146ZM12.6285 5.77753H14.871V24.6541H12.6285V5.77753ZM8.58116 1.80477H10.8237V24.6541H9.5422L8.88391 20.3883C8.85007 20.1691 8.73907 19.9784 8.58116 19.8423V1.80477ZM4.53395 10.5601H6.77647V19.6235H4.53395V10.5601ZM8.61247 44.3974L8.99147 41.102H22.5552L22.9342 44.3974H8.61247ZM26.2164 44.3974H24.7509L24.2563 40.0966C24.2038 39.6412 23.8182 39.2973 23.3597 39.2973H8.1869C7.7284 39.2973 7.34281 39.6412 7.29038 40.0966L6.79578 44.3974H5.33022L4.11569 33.8389H21.4455C21.9439 33.8389 22.3479 33.4349 22.3479 32.9365C22.3479 32.4381 21.9439 32.0341 21.4455 32.0341H3.90814L3.05205 24.5915H4.50571L5.16391 28.8575C5.23177 29.2976 5.6105 29.6223 6.05574 29.6223H25.4909C25.9361 29.6223 26.3149 29.2975 26.3827 28.8575L27.0409 24.5915H28.4946L26.2164 44.3974ZM28.7022 22.7867H26.2671C25.8219 22.7867 25.4433 23.1115 25.3753 23.5515L24.7171 27.8175H6.82953L6.17133 23.5515C6.10338 23.1114 5.72474 22.7867 5.2795 22.7867H2.84441L2.68821 21.4284H7.21792L7.8763 25.6941C7.91465 25.9426 8.05218 26.1544 8.24484 26.2917C8.24664 26.2929 8.24845 26.2942 8.25025 26.2955C8.25386 26.298 8.25756 26.3005 8.26117 26.3031C8.26406 26.305 8.26695 26.3069 8.26992 26.3089C8.27236 26.3105 8.27489 26.3122 8.27732 26.3138C8.2812 26.3163 8.28508 26.3188 8.28896 26.3212C8.29041 26.3221 8.29185 26.323 8.29329 26.3239C8.2979 26.3268 8.30259 26.3296 8.30728 26.3324C8.308 26.3328 8.30864 26.3332 8.30936 26.3336C8.40438 26.39 8.51059 26.4292 8.62393 26.4474C8.62438 26.4475 8.62492 26.4476 8.62546 26.4477C8.63097 26.4486 8.63647 26.4494 8.64207 26.4501C8.64378 26.4504 8.64541 26.4506 8.64712 26.4509C8.65199 26.4515 8.65687 26.4521 8.66174 26.4527C8.66427 26.4529 8.6667 26.4533 8.66923 26.4536C8.67356 26.454 8.67789 26.4545 8.68231 26.4549C8.68538 26.4552 8.68836 26.4555 8.69143 26.4557C8.6954 26.4561 8.69937 26.4564 8.70334 26.4567C8.70686 26.457 8.71047 26.4572 8.71408 26.4574C8.71769 26.4575 8.7213 26.4578 8.72491 26.458C8.72942 26.4582 8.73393 26.4584 8.73844 26.4585C8.74106 26.4586 8.74377 26.4587 8.74638 26.4588C8.75378 26.459 8.76118 26.4591 8.76858 26.4591H22.7785C22.7859 26.4591 22.7933 26.459 22.8007 26.4588C22.8033 26.4587 22.806 26.4586 22.8086 26.4585C22.8132 26.4584 22.8177 26.4583 22.8222 26.458C22.8258 26.4578 22.8294 26.4576 22.833 26.4574C22.8366 26.4572 22.8401 26.4569 22.8437 26.4567C22.8477 26.4565 22.8517 26.4561 22.8557 26.4557C22.8587 26.4555 22.8617 26.4552 22.8648 26.4549C22.8691 26.4545 22.8735 26.454 22.8779 26.4536C22.8804 26.4533 22.8828 26.453 22.8853 26.4527C22.8902 26.4521 22.8951 26.4515 22.9 26.4509C22.9016 26.4506 22.9033 26.4504 22.905 26.4501C22.9105 26.4493 22.9161 26.4485 22.9216 26.4477C22.9222 26.4476 22.9226 26.4475 22.9232 26.4474C23.0365 26.4292 23.1427 26.3899 23.2377 26.3336C23.2385 26.3333 23.2391 26.3328 23.2398 26.3324C23.2445 26.3296 23.2491 26.3268 23.2538 26.3239C23.2552 26.323 23.2567 26.3221 23.2581 26.3212C23.262 26.3188 23.2659 26.3162 23.2698 26.3138C23.2723 26.3122 23.2747 26.3105 23.2772 26.3089C23.28 26.3069 23.283 26.305 23.2859 26.3031C23.2896 26.3005 23.2932 26.298 23.2968 26.2955C23.2986 26.2942 23.3004 26.2929 23.3022 26.2917C23.4949 26.1544 23.6324 25.9427 23.6708 25.6941L24.3292 21.4284H28.8589L28.7022 22.7867Z" fill="#323232"/>
</svg>
