<svg width="45" height="43" viewBox="0 0 45 43" fill="none" xmlns="http://www.w3.org/2000/svg">
<path d="M41.2875 36.2689V33.837H14.8673V36.2689C14.8673 39.2905 17.3168 41.74 20.3384 41.74H35.8164C38.8381 41.7401 41.2875 39.2906 41.2875 36.2689Z" fill="#F2995E"/>
<path d="M30.3615 12.8968H25.2015C19.1672 12.8968 14.2755 17.7885 14.2755 23.8228V24.2755H41.2875V23.8228C41.2875 17.7886 36.3958 12.8968 30.3615 12.8968Z" fill="#FF8859"/>
<path d="M34.9961 21.9374C34.9402 21.9374 34.8843 21.9314 34.8284 21.9202C34.7734 21.909 34.7192 21.8927 34.6676 21.8712C34.616 21.8497 34.5652 21.823 34.5188 21.792C34.4723 21.7611 34.4276 21.725 34.388 21.6854C34.3485 21.6458 34.3123 21.6011 34.2814 21.5547C34.2504 21.5073 34.2237 21.4575 34.2022 21.4059C34.1807 21.3542 34.1644 21.3001 34.1532 21.245C34.142 21.1891 34.136 21.1332 34.136 21.0773C34.136 21.0205 34.142 20.9646 34.1532 20.9087C34.1644 20.8537 34.1807 20.7995 34.2022 20.7479C34.2237 20.6963 34.2504 20.6464 34.2814 20.5991C34.3123 20.5526 34.3485 20.5079 34.388 20.4683C34.4276 20.4287 34.4723 20.3935 34.5188 20.3617C34.5651 20.3307 34.616 20.3041 34.6676 20.2826C34.7192 20.261 34.7734 20.2447 34.8284 20.2335C34.9394 20.2112 35.0538 20.2112 35.1647 20.2335C35.2198 20.2447 35.2731 20.261 35.3255 20.2826C35.3772 20.3041 35.427 20.3307 35.4735 20.3617C35.5208 20.3935 35.5647 20.4288 35.6042 20.4683C35.6438 20.5079 35.6799 20.5526 35.7117 20.5991C35.7427 20.6464 35.7694 20.6963 35.7909 20.7479C35.8124 20.7995 35.8287 20.8537 35.8399 20.9087C35.8511 20.9646 35.8562 21.0205 35.8562 21.0773C35.8562 21.3035 35.7651 21.5245 35.6042 21.6854C35.5647 21.725 35.5208 21.7611 35.4735 21.792C35.427 21.823 35.3772 21.8497 35.3255 21.8712C35.2731 21.8927 35.2198 21.909 35.1647 21.9202C35.1088 21.9314 35.0529 21.9374 34.9961 21.9374Z" fill="#323232"/>
<path d="M9.42081 38.1178C9.3649 38.1178 9.30814 38.1118 9.25309 38.1006C9.19804 38.0894 9.14385 38.0731 9.09225 38.0516C9.03978 38.0301 8.98989 38.0034 8.94345 37.9724C8.89614 37.9415 8.85228 37.9053 8.81271 37.8658C8.77315 37.8261 8.73702 37.7815 8.70606 37.735C8.67509 37.6877 8.64843 37.6379 8.62693 37.5862C8.60543 37.5346 8.58908 37.4805 8.5779 37.4254C8.56672 37.3695 8.5607 37.3136 8.5607 37.2577C8.5607 37.0306 8.65273 36.8087 8.81271 36.6487C8.85228 36.6092 8.89614 36.5739 8.94345 36.5421C8.98989 36.5111 9.03978 36.4844 9.09225 36.4629C9.14385 36.4414 9.19804 36.4251 9.25309 36.4139C9.36396 36.3916 9.47758 36.3916 9.58853 36.4139C9.64358 36.4251 9.69776 36.4414 9.74937 36.4629C9.80184 36.4844 9.85172 36.5111 9.89817 36.5421C9.94548 36.5739 9.98934 36.6092 10.0289 36.6487C10.1889 36.8087 10.2809 37.0306 10.2809 37.2577C10.2809 37.3136 10.2749 37.3695 10.2637 37.4254C10.2534 37.4805 10.2362 37.5346 10.2147 37.5862C10.1932 37.6379 10.1674 37.6877 10.1364 37.735C10.1046 37.7815 10.0685 37.8262 10.0289 37.8658C9.98934 37.9053 9.94548 37.9415 9.89817 37.9724C9.85172 38.0034 9.80184 38.0301 9.74937 38.0516C9.69776 38.0731 9.64358 38.0894 9.58853 38.1006C9.53348 38.1118 9.47672 38.1178 9.42081 38.1178Z" fill="#323232"/>
<path d="M41.2588 24.2756H38.83V27.8331C38.83 29.4814 37.4938 30.8178 35.8454 30.8178C34.197 30.8178 32.8607 29.4815 32.8607 27.8331V30.101C33.5774 30.7678 34.4036 31.3246 35.7831 31.3246C38.4714 31.3246 39.6772 28.5069 41.6763 28.0666C42.5539 27.8733 43.1775 27.0929 43.1775 26.1943C43.1775 25.1346 42.3185 24.2756 41.2588 24.2756Z" fill="#1BCF92"/>
<path d="M23.9066 30.8178C22.2582 30.8178 20.9219 29.4815 20.9219 27.8331V24.2756H12.0969C11.9328 24.6326 11.8406 25.0294 11.8406 25.448C11.8406 26.6535 12.6071 27.7131 13.7235 28.1006C14.1245 27.953 14.5847 27.865 15.1325 27.865C18.5713 27.865 18.5713 31.3246 22.0106 31.3246H22.0272C22.8586 31.3246 23.4891 31.1224 24.0158 30.8158C23.9795 30.8171 23.9432 30.8178 23.9066 30.8178Z" fill="#1BCF92"/>
<path d="M26.8912 30.8524V28.389C26.8716 28.4007 26.852 28.4125 26.8326 28.4244C26.5652 29.7551 25.4128 30.7656 24.0156 30.8158C23.489 31.1224 22.8585 31.3246 22.0271 31.3246H22.0105C18.5711 31.3246 18.5711 27.865 15.1323 27.865C14.0304 27.865 13.2817 28.2205 12.6597 28.7033C13.4291 31.6567 16.1137 33.837 19.3082 33.837H29.8759C28.2276 33.837 26.8912 32.5008 26.8912 30.8524Z" fill="#D04E42"/>
<path d="M41.3375 28.1656C39.5331 28.8228 38.3162 31.3246 35.783 31.3246C34.4034 31.3246 33.5773 30.7677 32.8606 30.1009V30.8523C32.8606 32.5007 31.5243 33.8369 29.8759 33.8369H39.8965C41.5635 33.8369 42.9149 32.4855 42.9149 30.8185C42.915 29.6734 42.2772 28.6771 41.3375 28.1656Z" fill="#D04E42"/>
<path d="M24.6634 27.8331V24.2756H20.9219V27.8331C20.9219 29.4815 22.2582 30.8178 23.9066 30.8178C24.615 30.8178 25.2655 30.5705 25.7773 30.1581C25.0983 29.611 24.6634 28.773 24.6634 27.8331Z" fill="white"/>
<path d="M25.7773 30.1581C26.1002 30.4183 26.4781 30.6127 26.8912 30.7208V27.8332C26.8912 28.773 26.4564 29.611 25.7773 30.1581Z" fill="#FFD15C"/>
<path d="M24.6634 24.2756V27.8331C24.6634 28.773 25.0983 29.611 25.7773 30.1581C26.4564 29.611 26.8912 28.773 26.8912 27.8331V30.7207V30.8524C26.8912 32.5008 28.2275 33.837 29.8759 33.837C30.5844 33.837 31.2348 33.5898 31.7467 33.1773C32.4257 32.6302 32.8606 31.7923 32.8606 30.8524V27.8331C32.8606 29.4815 34.1968 30.8178 35.8453 30.8178C36.1068 30.8178 36.3604 30.7839 36.6021 30.7208C37.0152 30.6128 37.3931 30.4183 37.716 30.1581C38.395 29.611 38.8299 28.773 38.8299 27.8331V24.2756H24.6634Z" fill="#FFD15C"/>
<path d="M29.7691 5.3347L22.0188 0.860062V9.80933L29.7691 5.3347Z" fill="#279FC9"/>
<path d="M44.0376 26.1943C44.0376 24.9717 43.2439 23.931 42.1447 23.5603C42.0046 17.1822 36.7727 12.0367 30.3615 12.0367H22.8789V10.306L30.1991 6.07956C30.4653 5.92594 30.6292 5.64202 30.6292 5.3347C30.6292 5.02739 30.4653 4.74346 30.1991 4.58985L22.4489 0.115212C22.1828 -0.0384039 21.8549 -0.0384039 21.5888 0.115212C21.3226 0.268827 21.1587 0.55275 21.1587 0.860067V12.0367H13.676C7.26483 12.0367 2.03296 17.1821 1.89284 23.5603C0.793709 23.931 0 24.9717 0 26.1943C0 27.0795 0.428421 27.8928 1.10275 28.4073C0.567501 29.0819 0.262506 29.9275 0.262506 30.8186C0.262506 32.1185 0.905438 33.2712 1.88992 33.9752V36.2688C1.88992 39.7598 4.73009 42.6 8.2211 42.6H35.8164C39.3075 42.6 42.1476 39.7598 42.1476 36.2688V33.9752C43.1322 33.2712 43.775 32.1185 43.775 30.8186C43.775 29.9275 43.4701 29.0819 42.9348 28.4073C43.6093 27.8928 44.0376 27.0794 44.0376 26.1943ZM22.8789 2.34986L28.0489 5.33479L22.8789 8.31963V2.34986ZM13.676 13.7569H30.3615C35.7753 13.7569 40.2046 18.0534 40.4193 23.4155H3.61831C3.63844 22.9124 3.69572 22.4186 3.78732 21.937H31.5208C31.9958 21.937 32.3809 21.5519 32.3809 21.0769C32.3809 20.6018 31.9958 20.2168 31.5208 20.2168H4.27801C5.73117 16.4424 9.39593 13.7569 13.676 13.7569ZM39.8965 32.9769H33.079C33.3334 32.5946 33.5212 32.1643 33.6258 31.7027C34.2017 31.9899 34.9005 32.1847 35.783 32.1847C37.6463 32.1847 38.9168 31.0701 39.9376 30.1747C40.3933 29.775 40.8292 29.3925 41.2625 29.1471C41.7589 29.5531 42.0548 30.1638 42.0548 30.8186C42.0549 32.0087 41.0866 32.9769 39.8965 32.9769ZM37.9699 27.8331C37.9699 29.0046 37.0168 29.9577 35.8453 29.9577C34.6739 29.9577 33.7208 29.0046 33.7208 27.8331C33.7208 27.3581 33.3357 26.973 32.8607 26.973C32.3856 26.973 32.0006 27.3581 32.0006 27.8331V30.8524C32.0006 32.0238 31.0475 32.9769 29.876 32.9769C28.7045 32.9769 27.7514 32.0238 27.7514 30.8524V27.8331C27.7514 27.3581 27.3664 26.973 26.8913 26.973C26.4163 26.973 26.0312 27.3581 26.0312 27.8331C26.0312 28.9745 25.1266 29.9085 23.9966 29.9558C23.9874 29.9559 23.9782 29.9563 23.969 29.9567C23.9483 29.9573 23.9275 29.9577 23.9067 29.9577C22.7352 29.9577 21.7821 29.0046 21.7821 27.8331V25.1357H37.97V27.8331H37.9699ZM1.98273 30.8186C1.98273 30.1638 2.27869 29.5531 2.77506 29.1471C3.20838 29.3925 3.64429 29.775 4.09997 30.1747C5.12084 31.0702 6.3913 32.1847 8.25456 32.1847C10.3317 32.1847 11.425 31.0848 12.3034 30.2011C13.1232 29.3764 13.7707 28.725 15.1323 28.725C16.4939 28.725 17.1413 29.3764 17.9611 30.201C18.8396 31.0848 19.9329 32.1847 22.0105 32.1847H22.0271C22.8565 32.1847 23.5901 32.0132 24.2628 31.6615C24.9139 31.6013 25.5186 31.3781 26.0353 31.0334C26.0686 31.7495 26.2988 32.415 26.6728 32.9769H4.14109C2.95104 32.9769 1.98273 32.0087 1.98273 30.8186ZM2.77884 25.1357H20.0618V27.8331C20.0618 28.7736 20.4013 29.6362 20.9641 30.3051C20.2492 30.0629 19.7578 29.5685 19.1811 28.9883C18.3027 28.1047 17.2095 27.0049 15.1324 27.0049C13.0552 27.0049 11.9619 28.1047 11.0835 28.9885C10.2637 29.8132 9.61629 30.4645 8.25465 30.4645C7.03897 30.4645 6.16243 29.6957 5.23446 28.8816C4.55566 28.2862 3.85389 27.6705 2.99447 27.3575C2.92068 27.3306 2.8443 27.3142 2.76749 27.3082C2.69945 27.2718 2.6254 27.244 2.54644 27.2266C2.0677 27.1212 1.72022 26.687 1.72022 26.1943C1.72022 25.6106 2.19509 25.1357 2.77884 25.1357ZM40.4274 34.6971V36.2689C40.4274 36.3118 40.4268 36.3546 40.4256 36.3971H12.8964C12.4214 36.3971 12.0363 36.7822 12.0363 37.2573C12.0363 37.7323 12.4214 38.1174 12.8964 38.1174H40.0406C39.3268 39.7423 37.702 40.8799 35.8164 40.8799H8.2211C5.67862 40.8799 3.61014 38.8114 3.61014 36.2689V34.6971H40.4274ZM41.4912 27.2267C41.4121 27.2441 41.338 27.2719 41.27 27.3083C41.1932 27.3143 41.1169 27.3306 41.0432 27.3576C40.5434 27.5396 40.0969 27.824 39.6773 28.1471C39.6857 28.0436 39.69 27.9388 39.69 27.8331V25.1357H41.2587C41.8425 25.1357 42.3173 25.6106 42.3173 26.1943C42.3174 26.687 41.9699 27.1212 41.4912 27.2267Z" fill="#323232"/>
</svg>
