<svg width="40" height="43" viewBox="0 0 40 43" fill="none" xmlns="http://www.w3.org/2000/svg">
<path d="M34.0888 6.23865C30.3172 2.21553 25.3026 0 19.9688 0C14.6349 0 9.62034 2.21553 5.84866 6.23865C2.07714 10.2617 0 15.6106 0 21.3C0 26.9894 2.07714 32.3383 5.84866 36.3613C9.62034 40.3845 14.6349 42.6 19.9688 42.6C25.3026 42.6 30.3172 40.3845 34.0888 36.3613C37.8604 32.3383 39.9375 26.9894 39.9375 21.3C39.9375 15.6106 37.8604 10.2617 34.0888 6.23865ZM19.9688 40.9359C9.81815 40.9359 1.56006 32.1273 1.56006 21.3C1.56006 10.4727 9.81815 1.66406 19.9688 1.66406C30.1193 1.66406 38.3774 10.4727 38.3774 21.3C38.3774 32.1273 30.1193 40.9359 19.9688 40.9359Z" fill="#323232"/>
<path d="M35.2155 21.2998C35.2155 20.6818 35.4475 19.9734 35.6932 19.2234C36.0705 18.0716 36.4606 16.8805 36.1026 15.7078C35.7303 14.4884 34.6903 13.7271 33.7727 13.0555C33.1785 12.6206 32.6172 12.2097 32.2997 11.7449C31.9756 11.2704 31.7788 10.5671 31.5703 9.82247C31.2543 8.69282 30.8958 7.41249 29.937 6.66749C28.987 5.92923 27.7939 5.95685 26.6402 5.98348C25.9065 6.00062 25.2136 6.01651 24.6799 5.83105C24.1821 5.65824 23.6512 5.22267 23.0891 4.76156C22.2005 4.03261 21.1934 3.20641 19.9687 3.20641C18.7441 3.20641 17.7369 4.0327 16.8483 4.76172C16.2861 5.22283 15.7553 5.6584 15.2576 5.8313C14.7239 6.01667 14.0309 6.00062 13.2974 5.98373C12.1437 5.95693 10.9504 5.92956 10.0004 6.66766C9.04161 7.41266 8.68334 8.69299 8.36712 9.82264C8.15869 10.5672 7.96181 11.2705 7.63771 11.7451C7.32024 12.2101 6.75893 12.6208 6.16478 13.0558C5.24716 13.7274 4.20714 14.4888 3.83484 15.7083C3.47688 16.8808 3.86697 18.0719 4.24427 19.2238C4.4899 19.9738 4.72196 20.6821 4.72196 21.3001C4.72196 21.918 4.4899 22.6264 4.24427 23.3764C3.86697 24.5282 3.47688 25.7193 3.83484 26.892C4.20714 28.1114 5.24716 28.8727 6.16478 29.5444C6.75893 29.9793 7.32024 30.3902 7.63771 30.8551C7.96181 31.3296 8.15869 32.0329 8.36712 32.7775C8.68319 33.9071 9.04161 35.1874 10.0003 35.9324C10.9504 36.6707 12.1437 36.643 13.2974 36.6165C14.0307 36.5995 14.7239 36.5835 15.2576 36.7689C15.7553 36.9418 16.2863 37.3773 16.8484 37.8385C17.7369 38.5674 18.7441 39.3936 19.9687 39.3936C21.1934 39.3936 22.2005 38.5673 23.0892 37.838C23.6512 37.377 24.1821 36.9414 24.6799 36.7686C25.2134 36.5832 25.9062 36.5992 26.6401 36.6161C27.7937 36.6427 28.987 36.6704 29.937 35.9322C30.8958 35.1872 31.2541 33.9069 31.5703 32.7772C31.7788 32.0326 31.9756 31.3293 32.2997 30.8547C32.6172 30.3898 33.1785 29.979 33.7727 29.544C34.6903 28.8724 35.7303 28.1111 36.1026 26.8916C36.4606 25.719 36.0705 24.528 35.6932 23.3761C35.4475 22.6261 35.2155 21.9177 35.2155 21.2998ZM34.2205 23.9251C34.5258 24.8574 34.8142 25.7379 34.6192 26.3766C34.4109 27.0589 33.6721 27.5997 32.89 28.1723C32.2135 28.6675 31.5139 29.1796 31.0388 29.8752C30.5573 30.5802 30.3124 31.4553 30.0756 32.3015C29.8061 33.264 29.5516 34.1732 29.0185 34.5875C28.4942 34.9947 27.61 34.9744 26.6739 34.9527C25.8421 34.9335 24.9824 34.9137 24.1968 35.1865C23.4438 35.4481 22.78 35.9927 22.1381 36.5194C21.3795 37.1417 20.663 37.7295 19.9688 37.7295C19.2747 37.7295 18.558 37.1417 17.7995 36.5194C17.1574 35.9928 16.4936 35.4481 15.7407 35.1866C15.1579 34.9842 14.5342 34.9428 13.9115 34.9428C13.6948 34.9428 13.4783 34.9478 13.2636 34.9526C12.3273 34.9742 11.4433 34.9947 10.919 34.5873C10.3858 34.173 10.1314 33.2638 9.86197 32.3012C9.62507 31.455 9.38014 30.5801 8.89871 29.875C8.42367 29.1793 7.72406 28.6673 7.04754 28.1721C6.26541 27.5996 5.52664 27.0587 5.3183 26.3765C5.12329 25.7378 5.41174 24.8572 5.71705 23.925C5.99481 23.077 6.28202 22.2001 6.28202 21.2998C6.28202 20.3994 5.99481 19.5225 5.71705 18.6745C5.41174 17.7422 5.12329 16.8618 5.3183 16.2231C5.52664 15.5408 6.26541 14.9999 7.04754 14.4274C7.72398 13.9322 8.42359 13.4201 8.89871 12.7245C9.38022 12.0194 9.62515 11.1444 9.86197 10.2982C10.1314 9.33565 10.3859 8.42649 10.919 8.01222C11.4432 7.60494 12.3272 7.62541 13.2637 7.64696C14.095 7.66618 14.9551 7.68606 15.7407 7.41324C16.4937 7.15165 17.1575 6.60708 17.7995 6.08041C18.5581 5.45805 19.2747 4.87022 19.9688 4.87022C20.6629 4.87022 21.3795 5.45805 22.1381 6.08041C22.7801 6.60708 23.4439 7.15165 24.1968 7.41316C24.9824 7.68615 25.8425 7.66626 26.6739 7.64704C27.6098 7.62541 28.4942 7.60502 29.0185 8.01239C29.5517 8.42665 29.8061 9.3359 30.0756 10.2985C30.3125 11.1447 30.5574 12.0196 31.0388 12.7247C31.5139 13.4203 32.2135 13.9324 32.89 14.4276C33.6721 15.0001 34.4109 15.5409 34.6192 16.2232C34.8142 16.8619 34.5258 17.7425 34.2205 18.6747C33.9427 19.5227 33.6555 20.3996 33.6555 21.2999C33.6555 22.2003 33.9427 23.0771 34.2205 23.9251Z" fill="#323232"/>
<path d="M30.714 25.0894C30.3052 24.9444 29.8635 25.1802 29.7275 25.6161C28.4989 29.5528 25.0625 32.1979 21.1765 32.1979C20.7458 32.1979 20.3965 32.5704 20.3965 33.0299C20.3965 33.4894 20.7458 33.8619 21.1765 33.8619C25.7354 33.8619 29.7666 30.7594 31.2077 26.1417C31.3438 25.7057 31.1227 25.2346 30.714 25.0894Z" fill="#323232"/>
<path d="M30.9655 21.7563H30.9544C30.5236 21.7563 30.1743 22.1288 30.1743 22.5883C30.1743 23.0478 30.5236 23.4203 30.9544 23.4203H30.9655C31.3963 23.4203 31.7456 23.0478 31.7456 22.5883C31.7456 22.1288 31.3963 21.7563 30.9655 21.7563Z" fill="#323232"/>
<path d="M16.4501 17.6503C15.5377 16.6672 14.3211 16.1238 13.0246 16.1203C11.7254 16.118 10.5091 16.6535 9.59229 17.6313C9.45415 17.7788 9.3231 17.9365 9.20298 18.0999C8.65508 18.8454 8.71483 19.9119 9.34182 20.5806L9.87677 21.1512C9.29947 21.5124 8.73597 21.8718 8.42451 22.0894C8.07966 22.3302 7.85009 22.7335 7.81047 23.1681C7.77272 23.5821 7.90688 23.982 8.17482 24.2611L10.2194 26.4218C10.4605 26.6788 10.7864 26.8198 11.1297 26.8198C11.1754 26.8198 11.2215 26.8173 11.2679 26.8122C11.6715 26.7679 12.0303 26.5351 12.2527 26.1734C12.455 25.8442 12.7927 25.2419 13.1325 24.6239L13.6674 25.1944C14.2944 25.8634 15.2944 25.9268 15.9933 25.3424C16.1749 25.1906 16.3486 25.0226 16.5095 24.8431C17.3816 23.8701 17.8558 22.5883 17.8444 21.2339C17.833 19.8797 17.3379 18.6071 16.4501 17.6503ZM15.3819 23.6929C15.2723 23.8152 15.1542 23.9295 15.0309 24.0326C14.952 24.0985 14.8401 24.0921 14.7704 24.0177L13.5191 22.6829C13.3476 22.5001 13.1054 22.4128 12.8658 22.4464C12.6254 22.4802 12.4134 22.6312 12.2921 22.8552C11.7687 23.8217 11.3549 24.5677 11.0984 25.0081L9.50734 23.3268C10.0518 22.9656 10.981 22.3887 11.535 22.0474C11.7449 21.9181 11.8865 21.6919 11.9182 21.4355C11.9498 21.179 11.8678 20.9215 11.6963 20.7386L10.4449 19.4038C10.3753 19.3295 10.3692 19.2102 10.4307 19.1264C10.5124 19.0154 10.6015 18.9083 10.6955 18.8079C11.3145 18.1475 12.1369 17.7843 13.0121 17.7843C13.015 17.7843 13.0178 17.7843 13.0207 17.7843C13.899 17.7866 14.7231 18.1548 15.3413 18.8209C16.5775 20.1531 16.5957 22.3387 15.3819 23.6929Z" fill="#323232"/>
<path d="M20.2862 7.6739C17.1296 7.6739 14.5615 10.4132 14.5615 13.7803C14.5615 14.2398 14.9108 14.6123 15.3416 14.6123H25.2308C25.6616 14.6123 26.0109 14.2398 26.0109 13.7803C26.0109 10.4132 23.4429 7.6739 20.2862 7.6739ZM16.1948 12.9482C16.5611 10.8951 18.2564 9.33797 20.2862 9.33797C22.316 9.33797 24.0113 10.8951 24.3775 12.9482H16.1948Z" fill="#323232"/>
<path d="M21.1765 17.9987C20.7458 17.9987 20.3965 18.3712 20.3965 18.8307V29.2386C20.3965 29.6981 20.7458 30.0706 21.1765 30.0706C24.2967 30.0706 26.8352 27.3628 26.8352 24.0345C26.8352 20.7063 24.2967 17.9987 21.1765 17.9987ZM21.9565 28.3271V19.7422C23.8448 20.1318 25.2751 21.9084 25.2751 24.0346C25.2751 26.1609 23.8448 27.9374 21.9565 28.3271Z" fill="#323232"/>
<path d="M29.5551 14.7343C27.9637 14.7343 26.669 16.1153 26.669 17.8128C26.669 19.5103 27.9637 20.8913 29.5551 20.8913C31.1466 20.8913 32.4413 19.5103 32.4413 17.8128C32.4413 16.1153 31.1466 14.7343 29.5551 14.7343ZM29.5551 19.2272C28.8239 19.2272 28.2291 18.5927 28.2291 17.8128C28.2291 17.0328 28.8239 16.3983 29.5551 16.3983C30.2863 16.3983 30.8812 17.0328 30.8812 17.8128C30.8812 18.5927 30.2863 19.2272 29.5551 19.2272Z" fill="#323232"/>
<path d="M15.6144 28.0748C14.023 28.0748 12.7283 29.4558 12.7283 31.1533C12.7283 32.8509 14.023 34.2319 15.6144 34.2319C17.2059 34.2319 18.5005 32.8509 18.5005 31.1533C18.5005 29.4558 17.2059 28.0748 15.6144 28.0748ZM15.6144 32.5678C14.8832 32.5678 14.2884 31.9333 14.2884 31.1533C14.2884 30.3734 14.8832 29.7389 15.6144 29.7389C16.3456 29.7389 16.9405 30.3734 16.9405 31.1533C16.9405 31.9333 16.3456 32.5678 15.6144 32.5678Z" fill="#323232"/>
</svg>
