<svg width="27" height="24" viewBox="0 0 27 24" fill="none" xmlns="http://www.w3.org/2000/svg">
<path fill-rule="evenodd" clip-rule="evenodd" d="M21 6C22.1046 6 23 5.10457 23 4C23 2.89543 22.1046 2 21 2C19.8954 2 19 2.89543 19 4C19 5.10457 19.8954 6 21 6ZM10.2216 17.95L16.95 11.2216C16.5683 8.27563 14.0499 6 11 6C7.68629 6 5 8.68629 5 12C5 15.0499 7.27563 17.5683 10.2216 17.95ZM11 20C6.58172 20 3 16.4183 3 12C3 7.58172 6.58172 4 11 4C15.4183 4 19 7.58172 19 12C19 13.4836 18.5961 14.8729 17.8924 16.0639L21.4142 19.5858L18.5858 22.4142L15.0639 18.8924C13.8729 19.5961 12.4836 20 11 20Z" fill="#767373"/>
</svg>
